# xmcd
# 
# Track frame offsets:
#     150
#     15835
#     29332
#     51152
#     65600
#     81552
#     93690
#     103697
#     126750
#     134207
#     141022
#     152597
#     168832
#     186625
#     220695
# 
# Disc length: 3112
# 
# Revision: 2
# Processed by: cddbd v1.5.2PL0 Copyright (c) Steve Scherf et al.
# Submitted via: fre:ac v1.0.17
# 
DISCID=d80c260f
DTITLE=Willie Nelson - Always On My Mind: The Best Of Willie Nelson In Concert
DYEAR=0
DGENRE=Country
TTITLE0=Always On My Mind (live)
TTITLE1=Blue Eyes Crying In The Rain (live)
TTITLE2=City Of New Orleans (live)
TTITLE3=Georgia On My Mind (live)
TTITLE4=Stardust (live)
TTITLE5=Seven Spanish Angels (live)
TTITLE6=On The Road Again (live)
TTITLE7='Til I Gain Control Again (live)
TTITLE8=If you Got The Money Honey I've Got The Time (live)
TTITLE9=Luckenbach,Texas (live)
TTITLE10=Good Hearted Woman (live)
TTITLE11=Angel Flying To Close To The Ground (live)
TTITLE12=The Red Headed Stranger (live)
TTITLE13=Medley: Funny How Time Slips Away - Crazy - Night Life (live)
TTITLE14=To All The Girls I've Loved Before (live)
EXTD=
EXTT0=
EXTT1=
EXTT2=
EXTT3=
EXTT4=
EXTT5=
EXTT6=
EXTT7=
EXTT8=
EXTT9=
EXTT10=
EXTT11=
EXTT12=
EXTT13=
EXTT14=
PLAYORDER=
